<svg id="Layer_1" data-name="Layer 1" xmlns="http://www.w3.org/2000/svg" viewBox="0 0 75.51 90"><defs><style>.cls-1{fill:#104776;}</style></defs><path class="cls-1" d="M71.64,65.39h-.1A5.54,5.54,0,0,1,66,59.85L63.6,29.39A24.72,24.72,0,0,0,42.39,4.94a2.4,2.4,0,0,0,0-.28,4.67,4.67,0,0,0-9.33,0c0,.1,0,.19,0,.28A24.72,24.72,0,0,0,11.91,29.39L9.51,59.85A5.54,5.54,0,0,1,4,65.39h-.1A3.88,3.88,0,0,0,0,69.27v3.88a2.39,2.39,0,0,0,2.39,2.39H73.12a2.39,2.39,0,0,0,2.39-2.39V69.27A3.88,3.88,0,0,0,71.64,65.39Z"/><path class="cls-1" d="M37.76,90A10.86,10.86,0,0,0,48.62,79.14H26.9A10.86,10.86,0,0,0,37.76,90Z"/></svg>